# Blender v2.78 (sub 0) OBJ File: 'Tree1.blend'
# www.blender.org
mtllib Tree1.mtl
o Cylinder
v 0.000000 -0.427214 -1.000000
v 0.000000 16.869839 -0.473902
v 0.464723 -0.427214 -0.885456
v 0.220233 16.869839 -0.419619
v 0.822984 -0.427214 -0.568065
v 0.390013 16.869839 -0.269207
v 0.992709 -0.427214 -0.120537
v 0.470446 16.869839 -0.057122
v 0.935016 -0.427214 0.354605
v 0.443106 16.869839 0.168048
v 0.663123 -0.427214 0.748511
v 0.314255 16.869839 0.354720
v 0.239316 -0.427214 0.970942
v 0.113412 16.869839 0.460131
v -0.239316 -0.427214 0.970942
v -0.113412 16.869839 0.460131
v -0.663123 -0.427214 0.748511
v -0.314255 16.869839 0.354720
v -0.935016 -0.427214 0.354605
v -0.443106 16.869839 0.168048
v -0.992709 -0.427214 -0.120537
v -0.470446 16.869839 -0.057123
v -0.822984 -0.427214 -0.568065
v -0.390013 16.869839 -0.269207
v -0.464723 -0.427214 -0.885456
v -0.220233 16.869839 -0.419619
v 0.000000 2.455627 -0.776569
v 0.000000 5.338470 -0.812943
v 0.000000 8.221311 -0.644422
v 0.000000 11.104152 -0.705558
v 0.000000 13.986995 -0.828251
v 0.384907 13.986995 -0.733380
v 0.327889 11.104152 -0.624741
v 0.299478 8.221311 -0.570608
v 0.377794 5.338469 -0.719826
v 0.360890 2.455627 -0.687618
v 0.681637 13.986995 -0.470500
v 0.580663 11.104152 -0.400803
v 0.530349 8.221311 -0.366074
v 0.669039 5.338469 -0.461804
v 0.639104 2.455627 -0.441142
v 0.822212 13.986995 -0.099835
v 0.700414 11.104152 -0.085046
v 0.639724 8.221311 -0.077676
v 0.807016 5.338469 -0.097989
v 0.770907 2.455627 -0.093605
v 0.774428 13.986995 0.293702
v 0.659708 11.104152 0.250194
v 0.602545 8.221311 0.228515
v 0.760115 5.338469 0.288274
v 0.726105 2.455627 0.275375
v 0.549232 13.986995 0.619955
v 0.467872 11.104152 0.528118
v 0.427331 8.221311 0.482357
v 0.539081 5.338469 0.608497
v 0.514961 2.455627 0.581271
v 0.198213 13.986995 0.804183
v 0.168851 11.104152 0.685056
v 0.154220 8.221311 0.625697
v 0.194550 5.338469 0.789321
v 0.185845 2.455627 0.754004
v -0.198213 13.986995 0.804183
v -0.168851 11.104152 0.685056
v -0.154220 8.221311 0.625697
v -0.194550 5.338469 0.789321
v -0.185845 2.455627 0.754004
v -0.549232 13.986995 0.619955
v -0.467872 11.104152 0.528118
v -0.427331 8.221311 0.482357
v -0.539081 5.338469 0.608497
v -0.514961 2.455627 0.581271
v -0.774428 13.986995 0.293702
v -0.659708 11.104152 0.250194
v -0.602545 8.221311 0.228515
v -0.760115 5.338469 0.288274
v -0.726105 2.455627 0.275375
v -0.822212 13.986995 -0.099835
v -0.700414 11.104152 -0.085046
v -0.639724 8.221311 -0.077677
v -0.807016 5.338469 -0.097990
v -0.770907 2.455627 -0.093605
v -0.681637 13.986995 -0.470500
v -0.580663 11.104152 -0.400803
v -0.530349 8.221311 -0.366074
v -0.669039 5.338469 -0.461805
v -0.639104 2.455627 -0.441142
v -0.384907 13.986995 -0.733380
v -0.327889 11.104152 -0.624741
v -0.299478 8.221311 -0.570608
v -0.377793 5.338469 -0.719826
v -0.360889 2.455627 -0.687618
v 0.000000 16.168682 0.000000
v 2.522263 18.095499 1.832510
v -0.963400 18.095491 2.965090
v -3.117682 18.095512 0.000000
v -0.963400 18.095491 -2.965090
v 2.522263 18.095499 -1.832510
v 0.963400 21.213223 2.965090
v -2.522263 21.213223 1.832510
v -2.522263 21.213223 -1.832510
v 0.963400 21.213223 -2.965090
v 3.117682 21.213209 0.000000
v 0.000000 23.140036 0.000000
v -0.566268 16.689253 1.742823
v 1.482538 16.689253 1.077114
v 0.916276 17.821804 2.819955
v 2.965085 17.821810 0.000000
v 1.482538 16.689253 -1.077114
v -1.832525 16.689260 0.000000
v -2.398807 17.821810 1.742829
v -0.566268 16.689253 -1.742823
v -2.398807 17.821810 -1.742829
v 0.916276 17.821804 -2.819955
v 3.315082 19.654356 1.077119
v 3.315082 19.654356 -1.077119
v 0.000000 19.654356 3.485678
v 2.048832 19.654356 2.819972
v -3.315082 19.654356 1.077119
v -2.048832 19.654356 2.819972
v -2.048832 19.654356 -2.819972
v -3.315082 19.654356 -1.077119
v 2.048832 19.654356 -2.819972
v 0.000000 19.654356 -3.485678
v 2.398807 21.486910 1.742829
v -0.916276 21.486910 2.819955
v -2.965085 21.486902 0.000000
v -0.916276 21.486910 -2.819955
v 2.398807 21.486910 -1.742829
v 0.566268 22.619465 1.742823
v 1.832525 22.619459 0.000000
v -1.482538 22.619465 1.077114
v -1.482538 22.619465 -1.077114
v 0.566268 22.619465 -1.742823
v 0.000000 13.469963 -0.806246
v 0.374681 13.469963 -0.713896
v 0.663528 13.469963 -0.458000
v 0.800368 13.469963 -0.097182
v 0.753853 13.469963 0.285899
v 0.534640 13.469963 0.603484
v 0.192947 13.469963 0.782818
v -0.192947 13.469963 0.782818
v -0.534640 13.469963 0.603484
v -0.753853 13.469963 0.285899
v -0.800368 13.469963 -0.097182
v -0.663528 13.469963 -0.458000
v -0.374681 13.469963 -0.713896
v 2.981484 15.061483 -1.993875
v 3.122059 15.061483 -1.623209
v 2.963375 14.544452 -1.981375
v 3.100215 14.544452 -1.620557
v 1.588828 14.345158 -0.607626
v 2.355443 14.703321 -1.115417
v 2.214869 14.703321 -1.486083
v 1.448253 14.345158 -0.978292
v 1.430143 13.828126 -0.965792
v 2.196759 14.186289 -1.473583
v 2.333599 14.186289 -1.112765
v 1.566983 13.828126 -0.604974
v 1.521610 14.054531 -0.527982
v 3.180643 14.837527 -1.614923
v 0.617530 13.632144 0.070863
v 2.425689 14.476916 -1.126827
v 2.262110 14.476916 -1.558151
v 3.017063 14.837527 -2.046247
v 1.358030 14.054531 -0.959306
v 0.453951 13.632144 -0.360461
v 3.460896 14.101338 -2.010244
v 4.184503 14.654119 -1.484519
v 3.184508 14.654119 -1.159595
v 2.566470 14.654122 -2.010244
v 3.184508 14.654119 -2.860894
v 4.184503 14.654119 -2.535970
v 3.737284 15.548558 -1.159595
v 2.737288 15.548557 -1.484519
v 2.737288 15.548557 -2.535970
v 3.737284 15.548558 -2.860894
v 4.355322 15.548553 -2.010244
v 3.460896 16.101339 -2.010244
v 3.298440 14.250684 -1.510249
v 3.886219 14.250684 -1.701233
v 3.723765 14.575601 -1.201233
v 4.311543 14.575603 -2.010244
v 3.886219 14.250684 -2.319256
v 2.935166 14.250687 -2.010244
v 2.772707 14.575602 -1.510247
v 3.298440 14.250684 -2.510240
v 2.772707 14.575602 -2.510241
v 3.723765 14.575601 -2.819256
v 4.411953 15.101338 -1.701232
v 4.411953 15.101338 -2.319257
v 3.460896 15.101338 -1.010244
v 4.048681 15.101338 -1.201228
v 2.509838 15.101338 -1.701232
v 2.873110 15.101338 -1.201228
v 2.873110 15.101338 -2.819261
v 2.509838 15.101338 -2.319257
v 4.048681 15.101338 -2.819261
v 3.460896 15.101338 -3.010244
v 4.149085 15.627074 -1.510247
v 3.198027 15.627076 -1.201233
v 2.610248 15.627074 -2.010244
v 3.198027 15.627076 -2.819256
v 4.149085 15.627074 -2.510241
v 3.623351 15.951993 -1.510249
v 3.986626 15.951990 -2.010244
v 3.035573 15.951992 -1.701233
v 3.035573 15.951992 -2.319256
v 3.623351 15.951993 -2.510240
vn 0.2376 0.1185 -0.9641
vn 0.6584 0.1185 -0.7432
vn 0.9284 0.1185 -0.3521
vn 0.9857 0.1185 0.1197
vn 0.8172 0.1185 0.5641
vn 0.4614 0.1185 0.8792
vn 0.0000 0.1185 0.9930
vn -0.4614 0.1185 0.8792
vn -0.8172 0.1185 0.5641
vn -0.9857 0.1185 0.1197
vn -0.9284 0.1185 -0.3521
vn 0.0000 1.0000 -0.0000
vn -0.6584 0.1185 -0.7432
vn -0.2376 0.1185 -0.9641
vn 0.0000 -1.0000 0.0000
vn -0.2386 0.0750 -0.9682
vn -0.2393 -0.0122 -0.9709
vn -0.2389 0.0567 -0.9694
vn -0.2393 -0.0206 -0.9707
vn -0.2391 -0.0413 -0.9701
vn -0.6613 0.0750 -0.7464
vn -0.6631 -0.0122 -0.7485
vn -0.6621 0.0567 -0.7473
vn -0.6630 -0.0206 -0.7484
vn -0.6626 -0.0413 -0.7479
vn -0.9324 0.0750 -0.3536
vn -0.9349 -0.0122 -0.3546
vn -0.9335 0.0567 -0.3540
vn -0.9348 -0.0206 -0.3545
vn -0.9342 -0.0413 -0.3543
vn -0.9899 0.0750 0.1202
vn -0.9926 -0.0122 0.1205
vn -0.9911 0.0567 0.1203
vn -0.9925 -0.0206 0.1205
vn -0.9919 -0.0413 0.1204
vn -0.8207 0.0750 0.5665
vn -0.8229 -0.0122 0.5680
vn -0.8217 0.0567 0.5672
vn -0.8228 -0.0206 0.5679
vn -0.8223 -0.0413 0.5676
vn -0.4634 0.0750 0.8830
vn -0.4647 -0.0122 0.8854
vn -0.4640 0.0567 0.8840
vn -0.4646 -0.0206 0.8853
vn -0.4643 -0.0413 0.8847
vn 0.0000 0.0750 0.9972
vn 0.0000 -0.0122 0.9999
vn 0.0000 0.0567 0.9984
vn 0.0000 -0.0206 0.9998
vn 0.0000 -0.0413 0.9991
vn 0.4634 0.0750 0.8830
vn 0.4647 -0.0122 0.8854
vn 0.4640 0.0567 0.8840
vn 0.4646 -0.0206 0.8853
vn 0.4643 -0.0413 0.8847
vn 0.8207 0.0750 0.5665
vn 0.8229 -0.0122 0.5680
vn 0.8217 0.0567 0.5672
vn 0.8228 -0.0206 0.5679
vn 0.8223 -0.0413 0.5676
vn 0.9899 0.0750 0.1202
vn 0.9926 -0.0122 0.1205
vn 0.9911 0.0567 0.1203
vn 0.9925 -0.0206 0.1205
vn 0.9870 -0.0425 -0.1549
vn 0.9324 0.0750 -0.3536
vn 0.9349 -0.0122 -0.3546
vn 0.9335 0.0567 -0.3540
vn 0.9348 -0.0206 -0.3545
vn -0.3468 0.9287 0.1315
vn 0.6613 0.0750 -0.7464
vn 0.6631 -0.0122 -0.7485
vn 0.6621 0.0567 -0.7473
vn 0.6630 -0.0206 -0.7484
vn 0.8578 -0.0424 -0.5122
vn 0.2386 0.0750 -0.9682
vn 0.2393 -0.0122 -0.9709
vn 0.2389 0.0567 -0.9694
vn 0.2393 -0.0206 -0.9707
vn 0.2391 -0.0413 -0.9701
vn 0.1024 -0.9435 0.3151
vn 0.7002 -0.6617 0.2680
vn -0.2680 -0.9435 0.1947
vn -0.2680 -0.9435 -0.1947
vn 0.1024 -0.9435 -0.3151
vn 0.9050 -0.3304 0.2680
vn 0.0247 -0.3304 0.9435
vn -0.8897 -0.3304 0.3151
vn -0.5746 -0.3304 -0.7488
vn 0.5346 -0.3304 -0.7779
vn 0.8026 -0.1256 0.5831
vn -0.3066 -0.1256 0.9435
vn -0.9921 -0.1256 0.0000
vn -0.3066 -0.1256 -0.9435
vn 0.8026 -0.1256 -0.5831
vn 0.4089 0.6617 0.6284
vn -0.4713 0.6617 0.5831
vn -0.7002 0.6617 -0.2680
vn 0.0385 0.6617 -0.7488
vn 0.7240 0.6617 -0.1947
vn 0.2680 0.9435 -0.1947
vn 0.4911 0.7947 -0.3568
vn 0.4089 0.6617 -0.6284
vn -0.1024 0.9435 -0.3151
vn -0.1876 0.7947 -0.5773
vn -0.4713 0.6617 -0.5831
vn -0.3313 0.9435 0.0000
vn -0.6071 0.7947 0.0000
vn -0.7002 0.6617 0.2680
vn -0.1024 0.9435 0.3151
vn -0.1876 0.7947 0.5773
vn 0.0385 0.6617 0.7488
vn 0.2680 0.9435 0.1947
vn 0.4911 0.7947 0.3568
vn 0.7240 0.6617 0.1947
vn 0.8897 0.3304 -0.3151
vn 0.7947 0.1876 -0.5773
vn 0.5746 0.3304 -0.7488
vn -0.0247 0.3304 -0.9435
vn -0.3035 0.1876 -0.9342
vn -0.5346 0.3304 -0.7779
vn -0.9050 0.3304 -0.2680
vn -0.9822 0.1876 0.0000
vn -0.9050 0.3304 0.2680
vn -0.5346 0.3304 0.7779
vn -0.3035 0.1876 0.9342
vn -0.0247 0.3304 0.9435
vn 0.5746 0.3304 0.7488
vn 0.7947 0.1876 0.5773
vn 0.8897 0.3304 0.3151
vn 0.3066 0.1256 -0.9435
vn 0.3035 -0.1876 -0.9342
vn 0.0247 -0.3304 -0.9435
vn -0.8026 0.1256 -0.5831
vn -0.7947 -0.1876 -0.5773
vn -0.8897 -0.3304 -0.3151
vn -0.8026 0.1256 0.5831
vn -0.7947 -0.1876 0.5773
vn -0.5746 -0.3304 0.7488
vn 0.3066 0.1256 0.9435
vn 0.3035 -0.1876 0.9342
vn 0.5346 -0.3304 0.7779
vn 0.9921 0.1256 0.0000
vn 0.9822 -0.1876 0.0000
vn 0.9050 -0.3304 -0.2680
vn 0.4713 -0.6617 -0.5831
vn 0.1876 -0.7947 -0.5773
vn -0.0385 -0.6617 -0.7488
vn -0.4089 -0.6617 -0.6284
vn -0.4911 -0.7947 -0.3568
vn -0.7240 -0.6617 -0.1947
vn -0.7240 -0.6617 0.1947
vn -0.4911 -0.7947 0.3568
vn -0.4089 -0.6617 0.6284
vn 0.7002 -0.6617 -0.2680
vn 0.6071 -0.7947 0.0000
vn 0.3313 -0.9435 0.0000
vn -0.0385 -0.6617 0.7488
vn 0.1876 -0.7947 0.5773
vn 0.4713 -0.6617 0.5831
vn 0.6626 -0.0413 -0.7479
vn 0.9342 -0.0413 -0.3543
vn 0.9919 -0.0413 0.1204
vn 0.9071 -0.2423 -0.3440
vn 0.3468 -0.9287 -0.1315
vn -0.5050 -0.1160 -0.8553
vn 0.4967 0.1361 0.8572
vn 0.5105 0.1154 0.8521
vn -0.5023 -0.1355 -0.8540
vn 0.5937 -0.1499 0.7906
vn 0.5933 -0.1640 0.7881
vn -0.5816 0.1155 -0.8052
vn -0.5892 0.1308 -0.7973
vn 0.9109 0.2255 -0.3455
usemtl None
s off
f 31//1 2//1 4//1 32//1
f 32//2 4//2 6//2 37//2
f 37//3 6//3 8//3 42//3
f 42//4 8//4 10//4 47//4
f 47//5 10//5 12//5 52//5
f 52//6 12//6 14//6 57//6
f 57//7 14//7 16//7 62//7
f 62//8 16//8 18//8 67//8
f 67//9 18//9 20//9 72//9
f 72//10 20//10 22//10 77//10
f 77//11 22//11 24//11 82//11
f 4//12 2//12 26//12 24//12 22//12 20//12 18//12 16//12 14//12 12//12 10//12 8//12 6//12
f 82//13 24//13 26//13 87//13
f 87//14 26//14 2//14 31//14
f 1//15 3//15 5//15 7//15 9//15 11//15 13//15 15//15 17//15 19//15 21//15 23//15 25//15
f 25//16 91//16 27//16 1//16
f 91//17 90//17 28//17 27//17
f 90//18 89//18 29//18 28//18
f 89//19 88//19 30//19 29//19
f 146//20 87//20 31//20 134//20
f 23//21 86//21 91//21 25//21
f 86//22 85//22 90//22 91//22
f 85//23 84//23 89//23 90//23
f 84//24 83//24 88//24 89//24
f 145//25 82//25 87//25 146//25
f 21//26 81//26 86//26 23//26
f 81//27 80//27 85//27 86//27
f 80//28 79//28 84//28 85//28
f 79//29 78//29 83//29 84//29
f 144//30 77//30 82//30 145//30
f 19//31 76//31 81//31 21//31
f 76//32 75//32 80//32 81//32
f 75//33 74//33 79//33 80//33
f 74//34 73//34 78//34 79//34
f 143//35 72//35 77//35 144//35
f 17//36 71//36 76//36 19//36
f 71//37 70//37 75//37 76//37
f 70//38 69//38 74//38 75//38
f 69//39 68//39 73//39 74//39
f 142//40 67//40 72//40 143//40
f 15//41 66//41 71//41 17//41
f 66//42 65//42 70//42 71//42
f 65//43 64//43 69//43 70//43
f 64//44 63//44 68//44 69//44
f 141//45 62//45 67//45 142//45
f 13//46 61//46 66//46 15//46
f 61//47 60//47 65//47 66//47
f 60//48 59//48 64//48 65//48
f 59//49 58//49 63//49 64//49
f 140//50 57//50 62//50 141//50
f 11//51 56//51 61//51 13//51
f 56//52 55//52 60//52 61//52
f 55//53 54//53 59//53 60//53
f 54//54 53//54 58//54 59//54
f 139//55 52//55 57//55 140//55
f 9//56 51//56 56//56 11//56
f 51//57 50//57 55//57 56//57
f 50//58 49//58 54//58 55//58
f 49//59 48//59 53//59 54//59
f 138//60 47//60 52//60 139//60
f 7//61 46//61 51//61 9//61
f 46//62 45//62 50//62 51//62
f 45//63 44//63 49//63 50//63
f 44//64 43//64 48//64 49//64
f 137//65 161//65 42//65 47//65 138//65
f 5//66 41//66 46//66 7//66
f 41//67 40//67 45//67 46//67
f 40//68 39//68 44//68 45//68
f 39//69 38//69 43//69 44//69
f 153//70 152//70 148//70 147//70
f 3//71 36//71 41//71 5//71
f 36//72 35//72 40//72 41//72
f 35//73 34//73 39//73 40//73
f 34//74 33//74 38//74 39//74
f 135//75 32//75 37//75 166//75 136//75
f 1//76 27//76 36//76 3//76
f 27//77 28//77 35//77 36//77
f 28//78 29//78 34//78 35//78
f 29//79 30//79 33//79 34//79
f 134//80 31//80 32//80 135//80
f 92//81 105//81 104//81
f 93//82 105//82 107//82
f 92//83 104//83 109//83
f 92//84 109//84 111//84
f 92//85 111//85 108//85
f 93//86 107//86 114//86
f 94//87 106//87 116//87
f 95//88 110//88 118//88
f 96//89 112//89 120//89
f 97//90 113//90 122//90
f 93//91 114//91 117//91
f 94//92 116//92 119//92
f 95//93 118//93 121//93
f 96//94 120//94 123//94
f 97//95 122//95 115//95
f 98//96 124//96 129//96
f 99//97 125//97 131//97
f 100//98 126//98 132//98
f 101//99 127//99 133//99
f 102//100 128//100 130//100
f 130//101 133//101 103//101
f 130//102 128//102 133//102
f 128//103 101//103 133//103
f 133//104 132//104 103//104
f 133//105 127//105 132//105
f 127//106 100//106 132//106
f 132//107 131//107 103//107
f 132//108 126//108 131//108
f 126//109 99//109 131//109
f 131//110 129//110 103//110
f 131//111 125//111 129//111
f 125//112 98//112 129//112
f 129//113 130//113 103//113
f 129//114 124//114 130//114
f 124//115 102//115 130//115
f 115//116 128//116 102//116
f 115//117 122//117 128//117
f 122//118 101//118 128//118
f 123//119 127//119 101//119
f 123//120 120//120 127//120
f 120//121 100//121 127//121
f 121//122 126//122 100//122
f 121//123 118//123 126//123
f 118//124 99//124 126//124
f 119//125 125//125 99//125
f 119//126 116//126 125//126
f 116//127 98//127 125//127
f 117//128 124//128 98//128
f 117//129 114//129 124//129
f 114//130 102//130 124//130
f 122//131 123//131 101//131
f 122//132 113//132 123//132
f 113//133 96//133 123//133
f 120//134 121//134 100//134
f 120//135 112//135 121//135
f 112//136 95//136 121//136
f 118//137 119//137 99//137
f 118//138 110//138 119//138
f 110//139 94//139 119//139
f 116//140 117//140 98//140
f 116//141 106//141 117//141
f 106//142 93//142 117//142
f 114//143 115//143 102//143
f 114//144 107//144 115//144
f 107//145 97//145 115//145
f 108//146 113//146 97//146
f 108//147 111//147 113//147
f 111//148 96//148 113//148
f 111//149 112//149 96//149
f 111//150 109//150 112//150
f 109//151 95//151 112//151
f 109//152 110//152 95//152
f 109//153 104//153 110//153
f 104//154 94//154 110//154
f 107//155 108//155 97//155
f 107//156 105//156 108//156
f 105//157 92//157 108//157
f 104//158 106//158 94//158
f 104//159 105//159 106//159
f 105//160 93//160 106//160
f 30//80 134//80 135//80 33//80
f 33//161 135//161 136//161 38//161
f 38//162 136//162 137//162 43//162
f 43//163 137//163 138//163 48//163
f 48//60 138//60 139//60 53//60
f 53//55 139//55 140//55 58//55
f 58//50 140//50 141//50 63//50
f 63//45 141//45 142//45 68//45
f 68//40 142//40 143//40 73//40
f 73//35 143//35 144//35 78//35
f 78//30 144//30 145//30 83//30
f 83//25 145//25 146//25 88//25
f 88//20 146//20 134//20 30//20
f 149//164 164//164 160//164 150//164
f 157//165 156//165 149//165 150//165
f 156//166 163//166 164//166 149//166
f 152//167 162//167 160//167 148//167
f 42//168 161//168 159//168 151//168
f 151//168 159//168 162//168 152//168
f 136//169 166//169 165//169 155//169
f 155//169 165//169 163//169 156//169
f 137//165 136//165 155//165 158//165
f 158//165 155//165 156//165 157//165
f 37//70 42//70 151//70 154//70
f 154//70 151//70 152//70 153//70
f 159//170 161//170 137//170 158//170
f 162//170 159//170 158//170 157//170
f 160//171 162//171 157//171 150//171
f 164//172 163//172 153//172 147//172
f 165//173 166//173 37//173 154//173
f 160//174 164//174 147//174 148//174
f 163//173 165//173 154//173 153//173
f 167//81 180//81 179//81
f 168//82 180//82 182//82
f 167//83 179//83 184//83
f 167//84 184//84 186//84
f 167//85 186//85 183//85
f 168//86 182//86 189//86
f 169//87 181//87 191//87
f 170//88 185//88 193//88
f 171//89 187//89 195//89
f 172//90 188//90 197//90
f 168//91 189//91 192//91
f 169//92 191//92 194//92
f 170//93 193//93 196//93
f 171//94 195//94 198//94
f 172//95 197//95 190//95
f 173//96 199//96 204//96
f 174//97 200//97 206//97
f 175//98 201//98 207//98
f 176//99 202//99 208//99
f 177//100 203//100 205//100
f 205//101 208//101 178//101
f 205//102 203//102 208//102
f 203//103 176//103 208//103
f 208//104 207//104 178//104
f 208//105 202//105 207//105
f 202//106 175//106 207//106
f 207//107 206//107 178//107
f 207//108 201//108 206//108
f 201//109 174//109 206//109
f 206//110 204//110 178//110
f 206//111 200//111 204//111
f 200//112 173//112 204//112
f 204//113 205//113 178//113
f 204//114 199//114 205//114
f 199//115 177//115 205//115
f 190//116 203//116 177//116
f 190//117 197//117 203//117
f 197//118 176//118 203//118
f 198//119 202//119 176//119
f 198//120 195//120 202//120
f 195//121 175//121 202//121
f 196//122 201//122 175//122
f 196//123 193//123 201//123
f 193//124 174//124 201//124
f 194//125 200//125 174//125
f 194//126 191//126 200//126
f 191//127 173//127 200//127
f 192//128 199//128 173//128
f 192//129 189//129 199//129
f 189//130 177//130 199//130
f 197//131 198//131 176//131
f 197//132 188//132 198//132
f 188//133 171//133 198//133
f 195//134 196//134 175//134
f 195//135 187//135 196//135
f 187//136 170//136 196//136
f 193//137 194//137 174//137
f 193//138 185//138 194//138
f 185//139 169//139 194//139
f 191//140 192//140 173//140
f 191//141 181//141 192//141
f 181//142 168//142 192//142
f 189//143 190//143 177//143
f 189//144 182//144 190//144
f 182//145 172//145 190//145
f 183//146 188//146 172//146
f 183//147 186//147 188//147
f 186//148 171//148 188//148
f 186//149 187//149 171//149
f 186//150 184//150 187//150
f 184//151 170//151 187//151
f 184//152 185//152 170//152
f 184//153 179//153 185//153
f 179//154 169//154 185//154
f 182//155 183//155 172//155
f 182//156 180//156 183//156
f 180//157 167//157 183//157
f 179//158 181//158 169//158
f 179//159 180//159 181//159
f 180//160 168//160 181//160
